<mxfile host="65bd71144e">
    <diagram id="lut3Ta-v0c976ASl9qIL" name="ページ1">
        <mxGraphModel dx="1066" dy="483" grid="1" gridSize="10" guides="1" tooltips="1" connect="1" arrows="1" fold="1" page="1" pageScale="1" pageWidth="827" pageHeight="1169" math="0" shadow="0">
            <root>
                <mxCell id="0"/>
                <mxCell id="1" parent="0"/>
                <mxCell id="rlpLy5eyP_Tx5Tw7G8M6-1" value="" style="rounded=0;whiteSpace=wrap;html=1;" parent="1" vertex="1">
                    <mxGeometry x="180" y="110" width="340" height="300" as="geometry"/>
                </mxCell>
                <mxCell id="rlpLy5eyP_Tx5Tw7G8M6-4" value="main-vnet" style="text;html=1;strokeColor=none;fillColor=none;align=center;verticalAlign=middle;whiteSpace=wrap;rounded=0;" parent="1" vertex="1">
                    <mxGeometry x="460" y="420" width="60" height="30" as="geometry"/>
                </mxCell>
                <mxCell id="rlpLy5eyP_Tx5Tw7G8M6-5" value="" style="aspect=fixed;html=1;points=[];align=center;image;fontSize=12;image=img/lib/azure2/networking/Virtual_Networks.svg;" parent="1" vertex="1">
                    <mxGeometry x="430" y="425" width="33.5" height="20" as="geometry"/>
                </mxCell>
                <mxCell id="rlpLy5eyP_Tx5Tw7G8M6-9" value="" style="rounded=0;whiteSpace=wrap;html=1;dashed=1;" parent="1" vertex="1">
                    <mxGeometry x="370" y="270" width="85" height="80" as="geometry"/>
                </mxCell>
                <mxCell id="rlpLy5eyP_Tx5Tw7G8M6-10" value="vm-snet" style="text;html=1;strokeColor=none;fillColor=none;align=center;verticalAlign=middle;whiteSpace=wrap;rounded=0;" parent="1" vertex="1">
                    <mxGeometry x="390" y="350" width="90" height="20" as="geometry"/>
                </mxCell>
                <mxCell id="rlpLy5eyP_Tx5Tw7G8M6-13" value="172.16.1.0/24" style="text;html=1;strokeColor=none;fillColor=none;align=center;verticalAlign=middle;whiteSpace=wrap;rounded=0;" parent="1" vertex="1">
                    <mxGeometry x="390" y="370" width="90" height="20" as="geometry"/>
                </mxCell>
                <mxCell id="rlpLy5eyP_Tx5Tw7G8M6-17" value="172.16.0.0/20" style="text;html=1;strokeColor=none;fillColor=none;align=center;verticalAlign=middle;whiteSpace=wrap;rounded=0;" parent="1" vertex="1">
                    <mxGeometry x="460" y="445" width="60" height="30" as="geometry"/>
                </mxCell>
                <mxCell id="rlpLy5eyP_Tx5Tw7G8M6-23" value="" style="aspect=fixed;html=1;points=[];align=center;image;fontSize=12;image=img/lib/azure2/networking/Network_Security_Groups.svg;dashed=1;" parent="1" vertex="1">
                    <mxGeometry x="438.53" y="270" width="16.47" height="20" as="geometry"/>
                </mxCell>
                <mxCell id="5" value="" style="rounded=0;whiteSpace=wrap;html=1;dashed=1;" parent="1" vertex="1">
                    <mxGeometry x="375" y="140" width="80" height="70" as="geometry"/>
                </mxCell>
                <mxCell id="6" value="AzureFirewallSubnet" style="text;html=1;strokeColor=none;fillColor=none;align=center;verticalAlign=middle;whiteSpace=wrap;rounded=0;" parent="1" vertex="1">
                    <mxGeometry x="365" y="216.89999999999998" width="90" height="20" as="geometry"/>
                </mxCell>
                <mxCell id="7" value="172.16.3.0/24" style="text;html=1;strokeColor=none;fillColor=none;align=center;verticalAlign=middle;whiteSpace=wrap;rounded=0;" parent="1" vertex="1">
                    <mxGeometry x="365" y="236.89999999999998" width="90" height="20" as="geometry"/>
                </mxCell>
                <mxCell id="8" value="" style="aspect=fixed;html=1;points=[];align=center;image;fontSize=12;image=img/lib/azure2/networking/Network_Security_Groups.svg;dashed=1;" parent="1" vertex="1">
                    <mxGeometry x="438.53" y="140" width="16.47" height="20" as="geometry"/>
                </mxCell>
                <mxCell id="9" value="" style="rounded=0;whiteSpace=wrap;html=1;dashed=1;" parent="1" vertex="1">
                    <mxGeometry x="240" y="270" width="85" height="80" as="geometry"/>
                </mxCell>
                <mxCell id="10" value="lb-snet" style="text;html=1;strokeColor=none;fillColor=none;align=center;verticalAlign=middle;whiteSpace=wrap;rounded=0;" parent="1" vertex="1">
                    <mxGeometry x="260" y="350" width="90" height="20" as="geometry"/>
                </mxCell>
                <mxCell id="11" value="172.16.2.0/24" style="text;html=1;strokeColor=none;fillColor=none;align=center;verticalAlign=middle;whiteSpace=wrap;rounded=0;" parent="1" vertex="1">
                    <mxGeometry x="260" y="370" width="90" height="20" as="geometry"/>
                </mxCell>
                <mxCell id="12" value="" style="aspect=fixed;html=1;points=[];align=center;image;fontSize=12;image=img/lib/azure2/networking/Network_Security_Groups.svg;dashed=1;" parent="1" vertex="1">
                    <mxGeometry x="308.53" y="270" width="16.47" height="20" as="geometry"/>
                </mxCell>
                <mxCell id="2" value="" style="aspect=fixed;html=1;points=[];align=center;image;fontSize=12;image=img/lib/azure2/compute/VM_Scale_Sets.svg;" parent="1" vertex="1">
                    <mxGeometry x="392.5" y="290" width="40" height="40" as="geometry"/>
                </mxCell>
                <mxCell id="3" value="" style="aspect=fixed;html=1;points=[];align=center;image;fontSize=12;image=img/lib/azure2/networking/Load_Balancers.svg;" parent="1" vertex="1">
                    <mxGeometry x="262.5" y="290" width="40" height="40" as="geometry"/>
                </mxCell>
                <mxCell id="4" value="" style="aspect=fixed;html=1;points=[];align=center;image;fontSize=12;image=img/lib/azure2/networking/Firewalls.svg;" parent="1" vertex="1">
                    <mxGeometry x="395" y="158.10000000000002" width="40" height="33.81" as="geometry"/>
                </mxCell>
            </root>
        </mxGraphModel>
    </diagram>
</mxfile>